<?xml version="1.0" encoding="UTF-8" standalone="no" ?>
<!DOCTYPE svg PUBLIC "-//W3C//DTD SVG 1.1//EN" "http://www.w3.org/Graphics/SVG/1.1/DTD/svg11.dtd">
<svg xmlns="http://www.w3.org/2000/svg" xmlns:xlink="http://www.w3.org/1999/xlink" version="1.1" width="300" height="200" viewBox="0 0 300 200" xml:space="preserve">
<desc>Created with Fabric.js 5.2.4</desc>
<defs>
</defs>
<rect x="0" y="0" width="100%" height="100%" fill="transparent"></rect>
<g transform="matrix(Infinity NaN NaN Infinity 0 0)" id="447bcf70-39b4-4646-bfee-172f4245f3c6"  >
</g>
<g transform="matrix(1 0 0 1 150 100)" id="94c2a172-9b2e-49b1-b7d9-35c519a9b2ec"  >
<rect style="stroke: none; stroke-width: 1; stroke-dasharray: none; stroke-linecap: butt; stroke-dashoffset: 0; stroke-linejoin: miter; stroke-miterlimit: 4; fill: rgb(255,255,255); fill-rule: nonzero; opacity: 1; visibility: hidden;" vector-effect="non-scaling-stroke"  x="-150" y="-100" rx="0" ry="0" width="300" height="200" />
</g>
<g transform="matrix(0 0 NaN NaN 195.66 0)"  >
<g style=""   >
</g>
</g>
<g transform="matrix(0.45 0 0 0.45 340.84 259.11)"  >
<rect style="stroke: none; stroke-width: 1; stroke-dasharray: none; stroke-linecap: butt; stroke-dashoffset: 0; stroke-linejoin: miter; stroke-miterlimit: 4; fill: rgb(223,82,136); fill-rule: nonzero; opacity: 1; visibility: hidden;" vector-effect="non-scaling-stroke"  x="-150" y="-50" rx="0" ry="0" width="300" height="100" />
</g>
<g transform="matrix(0.25 0 0 0.26 300 200)"  >
<rect style="stroke: none; stroke-width: 1; stroke-dasharray: none; stroke-linecap: butt; stroke-dashoffset: 0; stroke-linejoin: miter; stroke-miterlimit: 4; fill: rgb(223,82,136); fill-rule: nonzero; opacity: 1; visibility: hidden;" vector-effect="non-scaling-stroke"  x="-540" y="-540" rx="0" ry="0" width="1080" height="1080" />
</g>
<g transform="matrix(0.35 0 0 0.36 150 100)"  >
<path style="stroke: rgb(0,0,0); stroke-width: 0; stroke-dasharray: none; stroke-linecap: butt; stroke-dashoffset: 0; stroke-linejoin: miter; stroke-miterlimit: 4; fill: rgb(223,82,136); fill-rule: nonzero; opacity: 1;" vector-effect="non-scaling-stroke"  transform=" translate(-256, -62.54)" d="M 156.434 50.322 C 162.294 50.322 167.04399999999998 45.57 167.04399999999998 39.709 C 167.04399999999998 33.847 162.29399999999998 29.096000000000004 156.43399999999997 29.096000000000004 C 150.57399999999996 29.096000000000004 145.82399999999996 33.847 145.82399999999996 39.709 C 145.82399999999996 45.57 150.57399999999996 50.322 156.43399999999997 50.322 z M 506.59400000000005 86.583 C 504.9800000000001 85.448 503.73400000000004 85.26 502.70000000000005 87.464 C 484.88000000000005 126.06 454.85 106.8 457.833 108.495 C 464.494 105.44800000000001 482.01300000000003 91.398 479.365 71.998 C 477.757 60.142 467.581 54.88300000000001 456.78000000000003 56.766000000000005 C 437.92600000000004 60.053000000000004 430.99 80.38900000000001 434.521 98.393 C 435.139 101.485 436.243 104.035 437.346 106.533 C 416.04 123.85900000000001 407.579 91.023 406.619 87.099 C 406.581 86.88900000000001 423.07000000000005 73.14500000000001 427.656 40.394000000000005 C 432.463 6.069000000000003 421.51300000000003 -0.18099999999999739 410.31600000000003 0.014000000000002899 C 389.596 0.3750000000000029 383.997 43.666000000000004 391.519 79.74600000000001 C 390.889 79.91000000000001 387.957 81.534 383.246 81.71600000000001 C 379.856 71.049 365.371 61.69900000000001 361.58 65.302 C 352.092 74.31500000000001 363.881 91.936 372.176 93.31800000000001 C 367.193 124.00900000000001 336.03 116.40800000000002 341.831 77.95700000000001 C 351.97900000000004 59.11200000000001 359.697 31.091000000000008 358.32 14.175000000000011 C 357.832 8.186 353.404 0.162 343.39 0.56 C 324.12899999999996 1.322 322.03499999999997 44.625 324.293 75.35900000000001 C 324.181 74.602 323.109 79.093 315.216 81.32600000000001 C 313.349 70.96300000000001 296.663 60.56100000000001 292.735 65.56200000000001 C 285.382 74.92200000000001 298.125 91.61100000000002 304.161 92.775 C 299.178 123.465 268.016 115.864 273.817 77.41300000000001 C 283.96500000000003 58.56900000000001 291.682 30.54800000000001 290.305 13.632000000000012 C 289.817 7.642000000000012 285.39 -0.38199999999998724 275.375 0.015000000000011227 C 256.114 0.7780000000000112 254.02 44.08100000000002 256.278 74.81500000000001 C 256.165 74.046 255.068 78.68500000000002 246.853 80.88100000000001 C 246.578 67.436 229.83100000000002 61.271000000000015 225.808 65.561 C 218.638 73.20800000000001 227.45 88.89800000000001 235.602 92.775 C 230.619 123.465 199.457 115.864 205.258 77.41300000000001 C 215.406 58.56900000000001 223.12400000000002 30.54800000000001 221.746 13.632000000000012 C 221.25900000000001 7.642000000000012 216.83100000000002 -0.38199999999998724 206.816 0.015000000000011227 C 187.556 0.7780000000000112 186.006 46.25800000000001 188.264 76.99100000000001 C 181.92000000000002 104.17200000000001 160.645 138.116 163.40900000000002 70.11900000000001 C 163.68200000000002 65.34900000000002 163.98000000000002 63.53800000000001 161.60200000000003 61.75200000000001 C 159.82000000000002 60.36400000000001 155.76800000000003 61.03200000000001 153.55300000000003 61.08700000000001 C 150.86100000000002 61.19500000000001 150.18600000000004 62.77000000000001 149.59100000000004 65.15100000000001 C 148.20500000000004 71.299 147.95600000000005 77.25900000000001 147.75800000000004 85.391 C 147.62800000000004 89.19500000000001 147.32300000000004 90.97 145.85800000000003 96.15700000000001 C 144.39500000000004 101.34300000000002 136.04800000000003 110.822 131.47800000000004 109.23700000000001 C 125.13800000000003 107.057 127.21800000000003 89.159 128.40600000000003 76.86200000000001 C 129.39600000000004 67.144 126.22600000000003 62.78000000000001 118.10400000000004 61.19300000000001 C 113.34900000000005 60.20200000000001 110.46000000000004 60.35400000000001 105.50800000000004 58.79300000000001 C 100.82500000000005 57.317000000000014 99.76600000000003 48.45900000000002 89.77800000000003 51.411000000000016 C 84.31500000000004 53.027000000000015 87.82700000000004 64.60200000000002 86.51400000000004 73.18100000000001 C 80.05900000000004 115.382 66.62800000000004 116.54100000000001 60.397000000000034 96.04100000000001 C 88.46 27.31 68.515 0.214 56.84 0.214 C 44.68000000000001 0.214 30.780000000000005 8.59 36.666000000000004 62.182 C 33.804 61.347 32.92400000000001 60.897000000000006 29.791000000000004 60.897000000000006 C 12.072 60.897 0 75.221 0 92.891 C 0 110.561 12.073 124.88600000000001 29.792 124.88600000000001 C 40.252 124.88600000000001 47.596000000000004 120.129 53.158 112.77000000000001 C 56.787 117.96700000000001 61.206 124.96600000000001 69.287 124.65100000000001 C 93.37400000000001 123.71300000000001 100.379 74.304 101.206 71.548 C 103.781 71.94500000000001 106.217 72.696 108.595 73.093 C 112.557 73.688 112.845 75.256 112.755 79.241 C 111.705 112.845 117.90599999999999 124.61099999999999 131.97199999999998 124.61099999999999 C 139.80899999999997 124.61099999999999 146.79399999999998 116.91099999999999 151.606 111.40499999999999 C 155.2 118.823 160.927 124.38399999999999 168.60999999999999 124.60999999999999 C 187.22699999999998 125.07299999999998 194.355 95.39999999999998 193.70499999999998 99.30499999999998 C 193.195 102.36899999999997 199.74499999999998 124.44299999999998 218.91099999999997 124.52299999999998 C 242.652 124.62299999999998 247.06499999999997 98.51499999999999 247.59099999999998 94.14199999999998 C 247.65699999999998 93.27199999999998 247.68599999999998 93.36199999999998 247.59099999999998 94.14199999999998 L 247.57299999999998 94.40699999999998 C 255.10999999999999 93.00499999999998 258.99899999999997 88.96399999999998 258.99899999999997 88.96399999999998 C 258.99899999999997 88.96399999999998 265.051 124.92899999999999 287.46899999999994 124.52399999999999 C 310.7489999999999 124.10199999999999 315.13899999999995 100.50199999999998 315.7149999999999 95.89999999999999 C 315.79099999999994 94.80799999999999 315.8359999999999 94.93599999999999 315.7149999999999 95.89999999999999 C 315.7118503401088 95.94498989767324 315.70885032351583 95.98999014656843 315.7059999999999 96.03500000000001 C 324.6589999999999 92.77799999999999 327.0139999999999 89.509 327.0139999999999 89.509 C 327.0139999999999 89.509 331.8239999999999 124.759 355.4839999999999 125.06700000000001 C 376.5679999999999 125.343 384.38199999999995 103.75200000000001 384.42799999999994 94.715 C 387.9839999999999 94.753 394.56199999999995 92.605 394.40799999999996 92.483 C 394.40799999999996 92.483 402.131 123.303 423.698 124.886 C 433.82399999999996 125.62899999999999 441.41999999999996 119.18799999999999 445.75 116.25 C 455.926 124.491 489.811 135.017 511.207 98.742 C 514.227 93.536 507.734 87.38600000000001 506.594 86.583 z M 28.937 112.92 C 18.599000000000004 112.92 11.970000000000002 103.361 11.970000000000002 93.054 C 11.970000000000002 82.748 18.055000000000003 73.18900000000001 28.393 73.18900000000001 C 33.045 73.18900000000001 35.633 73.70100000000001 39.256 76.852 C 39.913 79.441 41.775 85.41300000000001 42.681 88.125 C 43.894999999999996 91.754 45.339 94.843 46.794999999999995 98.205 C 44.714999999999996 106.828 37.895999999999994 112.92 28.936999999999994 112.92 z M 54.129000000000005 77.155 C 53.699000000000005 76.47 53.789 76.891 53.30800000000001 76.244 C 51.413000000000004 71.089 47.76100000000001 59.583 47.33800000000001 46.513999999999996 C 46.86000000000001 31.729999999999997 49.324000000000005 14.400999999999996 56.58800000000001 14.400999999999996 C 61.510000000000005 14.400999999999996 66.74100000000001 49.520999999999994 54.12800000000001 77.155 z M 199.69 61.751 C 198.524 52.977999999999994 198.463 13.867999999999995 207.852 14.945 C 213.036 17.045 204.565 53.95 199.69 61.751 z M 268.249 61.751 C 267.083 52.977999999999994 267.02200000000005 13.867999999999995 276.411 14.945 C 281.595 17.045 273.124 53.95 268.249 61.751 z M 336.264 62.296 C 335.09700000000004 53.522 335.03700000000003 14.411999999999999 344.425 15.488999999999997 C 349.60900000000004 17.589 341.13800000000003 54.495 336.264 62.296 z M 411.352 12.655999999999999 C 419.936 11.765999999999998 419.582 49.251999999999995 402.352 72.918 C 400.13 64.364 396.72299999999996 15.593000000000004 411.352 12.655000000000008 z M 447.43199999999996 93.31800000000001 C 444.67499999999995 79.39100000000002 451.799 70.24400000000001 459.143 69.24100000000001 C 461.71 68.83100000000002 465.42999999999995 70.49400000000001 466.17199999999997 73.60300000000001 C 467.392 79.462 465.99499999999995 88.153 449.558 99.18 C 449.582 99.274 448.04699999999997 96.42 447.433 93.31800000000001 z" stroke-linecap="round" />
</g>
</svg>